HIERARCHY
ROOT Hips
{
  OFFSET 13.6774 106.653 -34.4427
  CHANNELS 6 Xposition Yposition Zposition Zrotation Xrotation Yrotation
  JOINT ToSpine
  {
    OFFSET -2.69724 7.43032 -0.144315
    CHANNELS 3 Zrotation Xrotation Yrotation
    JOINT Spine
    {
      OFFSET -0.0310711 10.7595 1.96963
      CHANNELS 3 Zrotation Xrotation Yrotation
      JOINT Spine1
      {
        OFFSET 19.9056 3.91189 0.764692
        CHANNELS 3 Zrotation Xrotation Yrotation
        JOINT Neck
        {
          OFFSET 25.9749 7.03908 -0.130764
          CHANNELS 3 Zrotation Xrotation Yrotation
          JOINT Head
          {
            OFFSET 9.52751 0.295786 -0.907742
            CHANNELS 3 Zrotation Xrotation Yrotation
            End Site
            {
              OFFSET 16.4037 0.713936 2.7358
            }
          }
        }
        JOINT LeftShoulder
        {
          OFFSET 17.7449 4.33886 11.7777
          CHANNELS 3 Zrotation Xrotation Yrotation
          JOINT LeftArm
          {
            OFFSET 0.911315 1.27913 9.80584
            CHANNELS 3 Zrotation Xrotation Yrotation
            JOINT LeftForeArm
            {
              OFFSET 28.6126 1.18197 -3.53199
              CHANNELS 3 Zrotation Xrotation Yrotation
              JOINT LeftHand
              {
                OFFSET 27.5088 0.0218783 0.327423
                CHANNELS 3 Zrotation Xrotation Yrotation
                End Site
                {
                  OFFSET 18.6038 -0.000155887 0.382096
                }
              }
            }
          }
        }
        JOINT RightShoulder
        {
          OFFSET 17.1009 2.89543 -12.2328
          CHANNELS 3 Zrotation Xrotation Yrotation
          JOINT RightArm
          {
            OFFSET 1.4228 0.178766 -10.211
            CHANNELS 3 Zrotation Xrotation Yrotation
            JOINT RightForeArm
            {
              OFFSET 28.733 1.87905 2.64907
              CHANNELS 3 Zrotation Xrotation Yrotation
              JOINT RightHand
              {
                OFFSET 27.4588 0.290562 -0.101845
                CHANNELS 3 Zrotation Xrotation Yrotation
                End Site
                {
                  OFFSET 17.8396 -0.255518 -0.000602873
                }
              }
            }
          }
        }
      }
    }
  }
  JOINT LeftUpLeg
  {
    OFFSET -5.61296 -2.22332 -10.2353
    CHANNELS 3 Zrotation Xrotation Yrotation
    JOINT LeftLeg
    {
      OFFSET 2.56703 -44.7417 -7.93097
      CHANNELS 3 Zrotation Xrotation Yrotation
      JOINT LeftFoot
      {
        OFFSET 3.16933 -46.5642 -3.96578
        CHANNELS 3 Zrotation Xrotation Yrotation
        JOINT LeftToeBase
        {
          OFFSET 0.346054 -6.02161 12.8035
          CHANNELS 3 Zrotation Xrotation Yrotation
          End Site
          {
            OFFSET 0.134235 -1.35082 5.13018
          }
        }
      }
    }
  }
  JOINT RightUpLeg
  {
    OFFSET -5.7928 -1.72406 10.6446
    CHANNELS 3 Zrotation Xrotation Yrotation
    JOINT RightLeg
    {
      OFFSET -2.57161 -44.7178 -7.85259
      CHANNELS 3 Zrotation Xrotation Yrotation
      JOINT RightFoot
      {
        OFFSET -3.10148 -46.5936 -4.03391
        CHANNELS 3 Zrotation Xrotation Yrotation
        JOINT RightToeBase
        {
          OFFSET -0.0828122 -6.13587 12.8035
          CHANNELS 3 Zrotation Xrotation Yrotation
          End Site
          {
            OFFSET -0.131328 -1.35082 5.13018
          }
        }
      }
    }
  }
}
MOTION
Frames: 12
Frame Time: 0.03333333333333333
0.0000 93.1000 0.0000 59.8304 -51.4549 -25.2899 -71.0058 0.0740 88.0024 77.4636 71.2852 4.7027 3.2068 21.2701 1.7072 -125.1710 30.2585 157.3047 -166.4648 74.3891 -157.4294 -0.4950 -14.5281 -21.5904 -59.2410 33.0998 -136.7467 10.7783 -0.7870 -92.2244 -1.3172 -0.3527 4.7141 -1.5074 6.6818 27.3303 -127.1570 -33.5825 97.2375 16.5130 -10.0633 61.9005 0.4336 -0.1709 1.8586 -50.6065 5.1718 103.1129 -2.3027 34.1559 -3.0257 1.5133 -12.8001 -1.7033 2.2325 -6.9032 6.3891 -43.4950 -9.0633 81.2051 0.8727 16.7148 12.1041 -1.0492 8.8671 -0.6551 -1.1512 -4.7868 -0.1897 
0.0000 93.1000 0.0000 52.9539 -56.4427 -31.9436 -71.0046 0.2407 88.0013 73.0812 70.7963 8.2488 4.1943 20.4536 2.3231 -124.3145 28.1925 159.0358 -158.2161 71.5173 -162.3893 -0.5772 -14.7161 -20.4485 -63.8285 35.1016 -133.7825 9.9851 -0.2395 -90.2569 -0.7823 0.0607 4.5512 -1.1869 6.4814 24.5323 -120.1495 -41.4828 104.0029 18.8745 -10.3876 64.8852 0.4893 -0.5545 1.7943 -51.1355 5.9975 107.3380 -2.0391 33.2060 -0.3022 1.9997 -12.6594 -1.8547 1.2693 -6.4512 5.7493 -43.6514 -7.8740 81.1338 1.8723 13.1586 20.0256 -0.0527 10.1143 -0.4260 0.6720 -11.6713 -11.7566 
0.0000 93.1000 0.0000 44.0086 -61.0597 -40.9427 -71.0033 0.3670 88.0007 72.0629 70.0537 8.7564 4.7952 19.1585 3.0684 -122.2002 25.1834 161.0910 -151.1496 67.7599 -167.1713 -0.9566 -14.9322 -19.1198 -70.0615 34.9805 -129.8048 7.8946 -0.1101 -88.3066 -0.7311 0.3211 4.5093 -1.3546 5.8602 23.3785 -107.9834 -47.4083 115.5686 19.4472 -8.5187 68.9412 0.5755 -0.8468 1.7843 -51.1127 7.3372 109.9903 -1.7106 33.2986 3.4098 1.8959 -13.4711 -1.7870 1.0659 -7.2774 4.6711 -41.0219 -5.4088 82.1164 0.9863 19.3330 13.9621 -2.7249 5.4946 0.2185 1.6907 -15.5721 -15.0534 
0.0000 93.1000 0.0000 33.7997 -65.8642 -53.0329 -71.0037 1.0537 87.9994 73.0176 69.1077 7.6989 5.0733 18.5217 3.2650 -120.1934 23.3545 164.0192 -147.2142 64.7413 -168.2345 -0.9104 -15.5373 -18.2553 -77.2793 33.7648 -124.6750 6.2266 -0.1467 -85.5183 -0.7370 0.9301 4.3719 -1.2080 5.7062 21.2785 -94.8168 -51.0913 127.8541 22.0170 -6.7998 72.9473 0.2061 -1.3777 1.6756 -52.2959 7.7456 112.3446 -2.0864 33.3266 7.2925 0.9812 -13.1736 -1.9009 2.2270 -8.3366 7.9180 -39.2571 -4.4101 81.0859 0.6654 29.0642 3.1223 -7.0577 -0.2198 1.1776 2.0258 -16.2085 -15.4104 
0.0000 93.1000 0.0000 19.7391 -69.8058 -68.9886 -71.0042 0.6276 88.0005 71.0504 68.1045 9.8827 5.8464 18.0282 3.0657 -119.2840 22.6391 168.3212 -144.1745 62.7312 -169.3848 -0.3835 -15.5763 -17.5721 -83.2233 31.9744 -117.7273 7.1425 0.0745 -83.1236 -0.9450 0.3684 4.7656 -1.0311 5.5303 19.8176 -80.8297 -51.3082 139.9218 24.0843 -5.1170 77.6565 0.7305 -0.6704 2.5136 -54.0206 7.1746 112.9108 -2.1392 31.1611 11.9691 0.1487 -11.2159 -1.6377 3.3922 -9.9832 8.0099 -38.8346 -5.0025 77.8548 0.8678 39.0256 -4.9334 -10.5971 -2.8185 1.1715 1.6149 -14.4037 -14.0346 
0.0000 93.1000 0.0000 3.0017 -72.2386 -87.1216 -71.0044 0.5341 88.0039 68.0652 67.0246 12.0171 7.3983 17.6841 2.7300 -119.3453 21.9534 173.3785 -143.3534 60.8610 -169.1935 -0.3180 -15.7328 -17.5852 -89.3574 30.5945 -111.7415 9.0874 0.3058 -82.0810 -1.4378 0.1100 5.0532 -0.9338 5.2836 18.0474 -68.1561 -49.8679 150.2512 23.7012 -3.8958 82.0622 1.0230 -0.2388 2.8685 -56.7362 5.3257 113.4034 -3.1160 30.1763 18.1757 -0.9805 -10.3655 -1.3303 3.6786 -10.9179 9.3001 -40.0652 -6.1666 75.8201 0.9967 47.1384 -9.0233 -13.7856 -3.8272 1.2837 0.6905 -13.3458 -10.9400 
0.0000 93.1000 0.0000 -14.3721 -71.4540 -104.8517 -70.9992 -0.1404 88.0068 64.9670 65.8817 16.1766 9.6365 17.1331 2.2857 -121.4229 21.1791 177.1478 -142.3383 59.0264 -171.3095 1.2859 -15.4761 -17.3147 -93.9626 28.8142 -105.7656 10.8163 0.8644 -80.7409 -2.3228 -1.1169 5.9522 -0.1913 4.9277 18.6290 -58.9216 -45.2183 155.8003 22.5828 -2.5540 87.5142 2.0464 1.2936 4.4130 -57.9750 4.7787 115.3432 -2.3893 31.3936 16.8163 -2.1309 -9.8645 -1.5407 3.7553 -12.0034 11.0261 -41.6101 -6.1365 75.5381 1.1104 48.8674 -10.1658 -15.2150 -3.5492 0.6057 1.0071 -16.4647 -5.7489 
0.0000 93.1000 0.0000 -28.6682 -69.3576 -120.7874 -70.9990 0.0696 88.0097 61.1429 64.8903 20.4346 10.8905 16.5287 3.1459 -123.2850 20.5631 -178.7894 -141.3281 57.2075 -173.4195 0.3713 -16.1523 -18.1646 -100.1325 27.1031 -97.8625 12.8528 1.4990 -82.8248 -1.4287 -0.5012 4.8488 -0.6469 4.5597 20.3488 -54.1504 -39.9850 157.8926 22.5016 0.7553 91.3594 1.4983 0.2839 3.5468 -58.1567 6.0694 118.6908 -0.8364 33.3893 12.1916 -2.4271 -8.1119 -1.1543 5.8588 -14.5228 12.5887 -45.0615 -6.5114 74.7721 0.1104 45.1196 -8.1983 -11.6160 -3.1520 1.0771 2.4884 -20.7235 -2.4433 
0.0000 93.1000 0.0000 -41.2966 -65.3542 -133.0804 -70.9965 0.4153 88.0078 58.9583 64.2042 24.0419 12.1300 16.0953 2.9033 -126.1809 19.6238 -175.9706 -140.5550 55.4897 -175.0633 -0.3203 -16.9239 -19.7080 -105.9624 22.9206 -89.8026 13.1560 1.1784 -83.0827 -1.0448 -0.0411 4.2440 -0.9237 4.2832 21.8597 -51.8820 -35.1079 157.8436 20.0784 2.2717 95.5982 1.1666 -0.2446 2.5734 -57.4377 9.0159 120.8663 -0.9446 38.1039 10.9438 -1.5986 -6.6282 -0.9954 5.7311 -14.2981 12.7231 -48.5690 -4.0198 75.9111 0.9049 38.0515 0.9822 -7.0926 -5.7329 0.8473 3.0715 -17.7407 -11.0437 
0.0000 93.1000 0.0000 -50.6595 -59.8811 -142.9644 -70.9923 0.0749 88.0053 59.9937 64.0149 24.8667 12.3207 15.7641 1.9387 -130.3130 18.2401 -173.0918 -142.8021 53.7690 -176.1618 0.1194 -17.5812 -22.1349 -111.3353 17.0460 -83.8276 11.9128 0.9173 -83.2524 -0.8590 -0.4465 4.1659 -0.8496 3.8462 24.7249 -49.9784 -30.0264 156.9310 17.0328 3.0794 98.8738 1.2660 0.0929 2.4142 -55.0209 13.3164 122.1486 -0.7627 47.4914 8.0183 -2.0307 -4.3922 -0.9162 5.9674 -16.0337 15.5601 -49.0309 -1.8531 78.1418 0.9401 35.0976 1.9624 -7.5988 -8.3898 1.0996 1.0903 -13.7942 -4.0104 
0.0000 93.1000 0.0000 -58.1995 -54.1153 -149.8237 -70.9929 -0.1354 88.0036 66.0652 65.1940 21.0218 11.7052 16.6958 0.8452 -132.2980 16.7300 -171.1472 -141.5173 52.0713 -176.1640 0.1097 -18.5783 -24.9738 -114.9256 11.0299 -78.8263 11.3170 0.7373 -84.3238 -0.5981 -0.5965 4.1855 -0.9482 4.0494 26.0607 -48.8051 -26.2005 157.9824 15.0952 2.7639 100.7557 1.0988 0.1923 2.0755 -51.8795 17.8835 121.1353 -3.1585 57.2177 8.7390 -1.0590 -0.3754 -0.8111 6.1335 -16.9098 14.4939 -48.7949 0.7228 82.0852 1.1439 35.1282 3.9554 -8.3014 -11.3552 1.1383 0.6744 -9.8464 -5.3620 
0.0000 93.1000 0.0000 -61.9486 -48.3336 -154.7948 -70.9916 0.1223 88.0010 72.9502 65.9909 15.9782 10.7465 16.6304 0.6154 -134.2952 14.7392 -169.9736 -141.3670 50.0247 -177.0262 -0.2851 -18.9642 -27.1481 -120.0855 6.4006 -72.7394 11.8732 0.7345 -84.9190 -0.5435 -0.3425 3.8596 -1.3221 4.3737 28.1497 -49.0599 -22.0322 157.8733 12.7670 1.9872 100.7261 0.5890 -0.1480 1.3417 -48.0591 21.0820 116.9799 -5.2718 65.2804 6.7314 -1.2465 1.0105 -0.5577 5.2301 -13.0375 10.9826 -47.8103 1.9225 83.0933 0.9519 35.1201 6.2106 -9.1328 -12.6590 1.3200 -0.3112 -7.2803 -0.7450 
